<svg width="939" height="24" viewBox="0 0 939 24" fill="none" xmlns="http://www.w3.org/2000/svg">
<path d="M8.75 9H10.3L13.03 13.5H13.2V9H14.38V16H13.2L10.09 10.88H9.93V16H8.75V9ZM17.1989 16.1C16.7056 16.1 16.2989 15.9533 15.9789 15.66C15.6589 15.3667 15.4989 14.9633 15.4989 14.45C15.4989 13.9433 15.6789 13.54 16.0389 13.24C16.3989 12.94 16.9089 12.79 17.5689 12.79H19.0389V13.64H17.5489C17.2489 13.64 17.0189 13.7067 16.8589 13.84C16.6989 13.9733 16.6189 14.1567 16.6189 14.39C16.6189 14.6033 16.6989 14.7767 16.8589 14.91C17.0256 15.0433 17.2489 15.11 17.5289 15.11C17.8089 15.11 18.0656 15.0433 18.2989 14.91C18.5389 14.7767 18.7322 14.6033 18.8789 14.39V12.57C18.8789 12.2633 18.7822 12.0433 18.5889 11.91C18.4022 11.77 18.1556 11.7 17.8489 11.7C17.5556 11.7 17.2822 11.7567 17.0289 11.87C16.7756 11.9767 16.5189 12.1367 16.2589 12.35L15.6889 11.49C15.9822 11.2233 16.3156 11.0133 16.6889 10.86C17.0622 10.7067 17.4656 10.63 17.8989 10.63C18.5122 10.63 19.0156 10.79 19.4089 11.11C19.8022 11.43 19.9989 11.92 19.9989 12.58V16H18.8789V15.37L18.7389 15.31C18.5656 15.57 18.3522 15.7667 18.0989 15.9C17.8456 16.0333 17.5456 16.1 17.1989 16.1ZM21.3655 10.73H22.4855V11.49L22.6355 11.54C22.7622 11.26 22.9422 11.04 23.1755 10.88C23.4089 10.7133 23.6922 10.63 24.0255 10.63C24.3655 10.63 24.6489 10.7067 24.8755 10.86C25.1089 11.0133 25.2855 11.23 25.4055 11.51H25.5555C25.7689 11.2233 25.9955 11.0067 26.2355 10.86C26.4755 10.7067 26.7822 10.63 27.1555 10.63C27.6755 10.63 28.0789 10.8 28.3655 11.14C28.6522 11.4733 28.7955 11.93 28.7955 12.51V16H27.6755V12.67C27.6755 12.3433 27.5989 12.0967 27.4455 11.93C27.2989 11.7567 27.0789 11.67 26.7855 11.67C26.5322 11.67 26.3022 11.7367 26.0955 11.87C25.8889 12.0033 25.7389 12.1867 25.6455 12.42V16H24.5255V12.67C24.5255 12.3433 24.4489 12.0967 24.2955 11.93C24.1422 11.7567 23.9255 11.67 23.6455 11.67C23.3855 11.67 23.1555 11.7367 22.9555 11.87C22.7555 11.9967 22.5989 12.18 22.4855 12.42V16H21.3655V10.73ZM32.4255 16.1C31.8922 16.1 31.4289 15.9867 31.0355 15.76C30.6422 15.5333 30.3389 15.2167 30.1255 14.81C29.9122 14.3967 29.8055 13.9167 29.8055 13.37C29.8055 12.8367 29.9089 12.3633 30.1155 11.95C30.3289 11.53 30.6255 11.2067 31.0055 10.98C31.3855 10.7467 31.8255 10.63 32.3255 10.63C33.1055 10.63 33.7022 10.8767 34.1155 11.37C34.5289 11.8567 34.7355 12.51 34.7355 13.33V13.69H30.4355L30.9055 13.25C30.9055 13.87 31.0355 14.33 31.2955 14.63C31.5555 14.9233 31.9322 15.07 32.4255 15.07C32.6989 15.07 32.9489 15.0267 33.1755 14.94C33.4022 14.8467 33.6255 14.7033 33.8455 14.51L34.5355 15.33C34.2622 15.5833 33.9422 15.7767 33.5755 15.91C33.2089 16.0367 32.8255 16.1 32.4255 16.1ZM32.3355 11.61C31.9755 11.61 31.6789 11.71 31.4455 11.91C31.2189 12.1033 31.0622 12.3833 30.9755 12.75H33.6055C33.5589 12.39 33.4255 12.11 33.2055 11.91C32.9855 11.71 32.6955 11.61 32.3355 11.61Z" fill="#F7F7F8"/>
<g clip-path="url(#clip0_2200_19472)">
<path d="M223.351 11.1913L221.582 13.8448C221.186 14.4386 220.313 14.4385 219.918 13.8446L218.15 11.1911C217.707 10.5265 218.183 9.63657 218.982 9.63657L222.519 9.63657C223.318 9.63657 223.794 10.5267 223.351 11.1913Z" fill="#A1A2A5"/>
</g>
<rect x="234.75" y="4" width="1" height="16" rx="0.5" fill="#F0F0F0" fill-opacity="0.1"/>
<path d="M244.57 9H245.43V16H244.57V9ZM247.07 9H249.07C249.863 9 250.52 9.13667 251.04 9.41C251.56 9.68333 251.943 10.08 252.19 10.6C252.443 11.12 252.57 11.7533 252.57 12.5C252.57 13.2467 252.443 13.88 252.19 14.4C251.943 14.92 251.56 15.3167 251.04 15.59C250.52 15.8633 249.863 16 249.07 16H247.07V9ZM248.98 15.2C249.947 15.2 250.64 14.9833 251.06 14.55C251.48 14.1167 251.69 13.4333 251.69 12.5C251.69 11.5667 251.48 10.8833 251.06 10.45C250.64 10.0167 249.947 9.8 248.98 9.8H247.93V15.2H248.98Z" fill="#BCBEC8"/>
<rect x="469.5" y="4" width="1" height="16" rx="0.5" fill="#F0F0F0" fill-opacity="0.1"/>
<path d="M480.65 9.8H478.58V9H483.58V9.8H481.51V16H480.65V9.8ZM484.34 18C484.1 18 483.85 17.9567 483.59 17.87V17.05C483.703 17.1033 483.823 17.1433 483.95 17.17C484.083 17.2033 484.213 17.22 484.34 17.22C484.553 17.22 484.72 17.1633 484.84 17.05C484.967 16.9433 485.083 16.7367 485.19 16.43L485.36 15.94H485.12L483.23 10.76H484.12L485.59 14.98H485.73L487.2 10.76H488.1L485.91 16.72C485.743 17.1733 485.537 17.5 485.29 17.7C485.043 17.9 484.727 18 484.34 18ZM488.956 10.76H489.756V11.45L489.876 11.49C490.056 11.1967 490.266 10.9867 490.506 10.86C490.746 10.7267 491.04 10.66 491.386 10.66C491.806 10.66 492.183 10.7667 492.516 10.98C492.85 11.1933 493.113 11.5067 493.306 11.92C493.5 12.3267 493.596 12.8133 493.596 13.38C493.596 13.9733 493.483 14.4733 493.256 14.88C493.036 15.2867 492.74 15.5933 492.366 15.8C491.993 16 491.583 16.1 491.136 16.1C490.916 16.1 490.686 16.0667 490.446 16C490.206 15.94 489.976 15.8533 489.756 15.74V17.9H488.956V10.76ZM491.046 15.32C491.373 15.32 491.666 15.25 491.926 15.11C492.186 14.97 492.393 14.7533 492.546 14.46C492.7 14.1667 492.776 13.8067 492.776 13.38C492.776 12.9533 492.71 12.5967 492.576 12.31C492.443 12.0167 492.256 11.8 492.016 11.66C491.783 11.5133 491.516 11.44 491.216 11.44C490.883 11.44 490.606 11.5133 490.386 11.66C490.166 11.8 489.956 12.0133 489.756 12.3V14.96C489.976 15.0733 490.193 15.1633 490.406 15.23C490.62 15.29 490.833 15.32 491.046 15.32ZM496.918 16.1C496.385 16.1 495.928 15.9867 495.548 15.76C495.168 15.5333 494.881 15.2167 494.688 14.81C494.495 14.4033 494.398 13.9267 494.398 13.38C494.398 12.84 494.495 12.3667 494.688 11.96C494.881 11.5467 495.161 11.2267 495.528 11C495.895 10.7733 496.338 10.66 496.858 10.66C497.625 10.66 498.208 10.9067 498.608 11.4C499.015 11.8867 499.218 12.5467 499.218 13.38V13.58H494.848L495.198 13.3C495.198 13.94 495.345 14.4367 495.638 14.79C495.931 15.1433 496.361 15.32 496.928 15.32C497.215 15.32 497.485 15.27 497.738 15.17C497.991 15.0633 498.238 14.9033 498.478 14.69L499.008 15.3C498.728 15.5667 498.408 15.7667 498.048 15.9C497.688 16.0333 497.311 16.1 496.918 16.1ZM496.868 11.42C496.435 11.42 496.078 11.5467 495.798 11.8C495.518 12.0533 495.335 12.4 495.248 12.84H498.378C498.305 12.3933 498.141 12.0467 497.888 11.8C497.635 11.5467 497.295 11.42 496.868 11.42Z" fill="#BCBEC8"/>
<rect x="704.25" y="4" width="1" height="16" rx="0.5" fill="#F0F0F0" fill-opacity="0.1"/>
<path d="M714.07 9H716.07C716.863 9 717.52 9.13667 718.04 9.41C718.56 9.68333 718.943 10.08 719.19 10.6C719.443 11.12 719.57 11.7533 719.57 12.5C719.57 13.2467 719.443 13.88 719.19 14.4C718.943 14.92 718.56 15.3167 718.04 15.59C717.52 15.8633 716.863 16 716.07 16H714.07V9ZM715.98 15.2C716.947 15.2 717.64 14.9833 718.06 14.55C718.48 14.1167 718.69 13.4333 718.69 12.5C718.69 11.5667 718.48 10.8833 718.06 10.45C717.64 10.0167 716.947 9.8 715.98 9.8H714.93V15.2H715.98ZM722.129 16.1C721.582 16.1 721.152 15.95 720.839 15.65C720.525 15.35 720.369 14.9567 720.369 14.47C720.369 13.97 720.539 13.57 720.879 13.27C721.219 12.9633 721.692 12.81 722.299 12.81H723.969V13.53H722.299C721.932 13.53 721.652 13.6167 721.459 13.79C721.265 13.9633 721.169 14.1867 721.169 14.46C721.169 14.7133 721.262 14.9233 721.449 15.09C721.642 15.2567 721.915 15.34 722.269 15.34C722.582 15.34 722.869 15.27 723.129 15.13C723.395 14.99 723.622 14.7933 723.809 14.54V12.52C723.809 12.1333 723.699 11.8567 723.479 11.69C723.259 11.5233 722.962 11.44 722.589 11.44C722.269 11.44 721.992 11.4967 721.759 11.61C721.532 11.7233 721.305 11.8933 721.079 12.12L720.549 11.52C720.782 11.2667 721.075 11.06 721.429 10.9C721.782 10.74 722.172 10.66 722.599 10.66C723.205 10.66 723.692 10.8167 724.059 11.13C724.425 11.4433 724.609 11.9067 724.609 12.52V16H723.809V15.3L723.689 15.26C723.529 15.52 723.315 15.7267 723.049 15.88C722.782 16.0267 722.475 16.1 722.129 16.1ZM727.804 16.1C727.344 16.1 726.967 15.9933 726.674 15.78C726.38 15.5667 726.234 15.15 726.234 14.53V11.5H725.324V10.76H726.234V9.54H727.034V10.76H728.534V11.5H727.034V14.49C727.034 14.8233 727.11 15.05 727.264 15.17C727.417 15.2833 727.64 15.34 727.934 15.34C728.06 15.34 728.177 15.33 728.284 15.31C728.397 15.29 728.517 15.26 728.644 15.22V15.94C728.517 15.9867 728.377 16.0233 728.224 16.05C728.07 16.0833 727.93 16.1 727.804 16.1ZM731.551 16.1C731.018 16.1 730.561 15.9867 730.181 15.76C729.801 15.5333 729.514 15.2167 729.321 14.81C729.128 14.4033 729.031 13.9267 729.031 13.38C729.031 12.84 729.128 12.3667 729.321 11.96C729.514 11.5467 729.794 11.2267 730.161 11C730.528 10.7733 730.971 10.66 731.491 10.66C732.258 10.66 732.841 10.9067 733.241 11.4C733.648 11.8867 733.851 12.5467 733.851 13.38V13.58H729.481L729.831 13.3C729.831 13.94 729.978 14.4367 730.271 14.79C730.564 15.1433 730.994 15.32 731.561 15.32C731.848 15.32 732.118 15.27 732.371 15.17C732.624 15.0633 732.871 14.9033 733.111 14.69L733.641 15.3C733.361 15.5667 733.041 15.7667 732.681 15.9C732.321 16.0333 731.944 16.1 731.551 16.1ZM731.501 11.42C731.068 11.42 730.711 11.5467 730.431 11.8C730.151 12.0533 729.968 12.4 729.881 12.84H733.011C732.938 12.3933 732.774 12.0467 732.521 11.8C732.268 11.5467 731.928 11.42 731.501 11.42ZM737.742 9H739.132L741.182 15.13H741.322L743.372 9H744.762V16H743.932V10.25H743.792L741.902 16H740.602L738.712 10.25H738.572V16H737.742V9ZM748.444 16.1C747.924 16.1 747.481 15.9867 747.114 15.76C746.747 15.5333 746.467 15.2167 746.274 14.81C746.081 14.3967 745.984 13.92 745.984 13.38C745.984 12.84 746.081 12.3667 746.274 11.96C746.467 11.5467 746.747 11.2267 747.114 11C747.481 10.7733 747.924 10.66 748.444 10.66C748.964 10.66 749.407 10.7733 749.774 11C750.141 11.2267 750.421 11.5467 750.614 11.96C750.807 12.3667 750.904 12.84 750.904 13.38C750.904 13.92 750.807 14.3967 750.614 14.81C750.421 15.2167 750.141 15.5333 749.774 15.76C749.407 15.9867 748.964 16.1 748.444 16.1ZM748.444 15.32C748.791 15.32 749.087 15.24 749.334 15.08C749.581 14.92 749.767 14.6933 749.894 14.4C750.021 14.1067 750.084 13.7667 750.084 13.38C750.084 12.9933 750.021 12.6533 749.894 12.36C749.767 12.0667 749.581 11.84 749.334 11.68C749.087 11.52 748.791 11.44 748.444 11.44C748.097 11.44 747.801 11.52 747.554 11.68C747.307 11.84 747.121 12.0667 746.994 12.36C746.867 12.6533 746.804 12.9933 746.804 13.38C746.804 13.7667 746.867 14.1067 746.994 14.4C747.121 14.6933 747.307 14.92 747.554 15.08C747.801 15.24 748.097 15.32 748.444 15.32ZM753.997 16.1C753.543 16.1 753.143 16 752.797 15.8C752.457 15.5933 752.19 15.2933 751.997 14.9C751.803 14.5067 751.707 14.0333 751.707 13.48C751.707 12.8667 751.823 12.35 752.057 11.93C752.297 11.5033 752.617 11.1867 753.017 10.98C753.423 10.7667 753.877 10.66 754.377 10.66C754.577 10.66 754.783 10.6833 754.997 10.73C755.21 10.77 755.413 10.8267 755.607 10.9V8.9H756.407V16H755.607V15.31L755.487 15.27C755.313 15.5567 755.1 15.7667 754.847 15.9C754.593 16.0333 754.31 16.1 753.997 16.1ZM754.057 15.32C754.437 15.32 754.74 15.25 754.967 15.11C755.193 14.97 755.407 14.7533 755.607 14.46V11.68C755.407 11.6 755.207 11.54 755.007 11.5C754.813 11.46 754.6 11.44 754.367 11.44C753.973 11.44 753.637 11.5233 753.357 11.69C753.083 11.85 752.877 12.0833 752.737 12.39C752.597 12.6967 752.527 13.06 752.527 13.48C752.527 13.8267 752.59 14.14 752.717 14.42C752.85 14.7 753.033 14.92 753.267 15.08C753.5 15.24 753.763 15.32 754.057 15.32ZM757.847 10.76H758.647V16H757.847V10.76ZM757.817 8.9H758.677V9.76H757.817V8.9ZM760.494 11.5H759.484V10.76H760.494V10.61C760.494 10.0167 760.671 9.56667 761.024 9.26C761.384 8.95333 761.844 8.8 762.404 8.8C762.578 8.8 762.758 8.81667 762.944 8.85V9.59C762.744 9.55667 762.564 9.54 762.404 9.54C762.058 9.54 761.784 9.62667 761.584 9.8C761.391 9.96667 761.294 10.21 761.294 10.53V10.76H764.324V16H763.524V11.5H761.294V16H760.494V11.5ZM763.494 8.9H764.354V9.76H763.494V8.9ZM767.967 16.1C767.434 16.1 766.977 15.9867 766.597 15.76C766.217 15.5333 765.93 15.2167 765.737 14.81C765.544 14.4033 765.447 13.9267 765.447 13.38C765.447 12.84 765.544 12.3667 765.737 11.96C765.93 11.5467 766.21 11.2267 766.577 11C766.944 10.7733 767.387 10.66 767.907 10.66C768.674 10.66 769.257 10.9067 769.657 11.4C770.064 11.8867 770.267 12.5467 770.267 13.38V13.58H765.897L766.247 13.3C766.247 13.94 766.394 14.4367 766.687 14.79C766.98 15.1433 767.41 15.32 767.977 15.32C768.264 15.32 768.534 15.27 768.787 15.17C769.04 15.0633 769.287 14.9033 769.527 14.69L770.057 15.3C769.777 15.5667 769.457 15.7667 769.097 15.9C768.737 16.0333 768.36 16.1 767.967 16.1ZM767.917 11.42C767.484 11.42 767.127 11.5467 766.847 11.8C766.567 12.0533 766.384 12.4 766.297 12.84H769.427C769.354 12.3933 769.19 12.0467 768.937 11.8C768.684 11.5467 768.344 11.42 767.917 11.42ZM773.284 16.1C772.83 16.1 772.43 16 772.084 15.8C771.744 15.5933 771.477 15.2933 771.284 14.9C771.09 14.5067 770.994 14.0333 770.994 13.48C770.994 12.8667 771.11 12.35 771.344 11.93C771.584 11.5033 771.904 11.1867 772.304 10.98C772.71 10.7667 773.164 10.66 773.664 10.66C773.864 10.66 774.07 10.6833 774.284 10.73C774.497 10.77 774.7 10.8267 774.894 10.9V8.9H775.694V16H774.894V15.31L774.774 15.27C774.6 15.5567 774.387 15.7667 774.134 15.9C773.88 16.0333 773.597 16.1 773.284 16.1ZM773.344 15.32C773.724 15.32 774.027 15.25 774.254 15.11C774.48 14.97 774.694 14.7533 774.894 14.46V11.68C774.694 11.6 774.494 11.54 774.294 11.5C774.1 11.46 773.887 11.44 773.654 11.44C773.26 11.44 772.924 11.5233 772.644 11.69C772.37 11.85 772.164 12.0833 772.024 12.39C771.884 12.6967 771.814 13.06 771.814 13.48C771.814 13.8267 771.877 14.14 772.004 14.42C772.137 14.7 772.32 14.92 772.554 15.08C772.787 15.24 773.05 15.32 773.344 15.32Z" fill="#BCBEC8"/>
<defs>
<clipPath id="clip0_2200_19472">
<rect width="12" height="12" fill="white" transform="matrix(0 1 -1 0 226.75 6)"/>
</clipPath>
</defs>
</svg>
