<svg width="24" height="24" viewBox="0 0 24 24" fill="none" xmlns="http://www.w3.org/2000/svg">
<path fill-rule="evenodd" clip-rule="evenodd" d="M13 5.5C13 5.22386 12.7761 5 12.5 5C12.2239 5 12 5.22386 12 5.5V10C10.067 10 8.5 11.567 8.5 13.5V14V15.5C8.5 16.8807 7.38071 18 6 18C5.72386 18 5.5 18.2239 5.5 18.5C5.5 18.7761 5.72386 19 6 19H9.5H11H11.5H14C15.3807 19 16.5 17.8807 16.5 16.5V14V13.5C16.5 11.567 14.933 10 13 10V5.5ZM15.5 14H9.5V15.5C9.5 16.4793 9.09777 17.3647 8.44949 18H9.5C10.3284 18 11 17.3284 11 16.5V15.5C11 15.2239 11.2239 15 11.5 15C11.7761 15 12 15.2239 12 15.5V16.5C12 17.0628 11.814 17.5822 11.5002 18C12.3285 17.9999 13 17.3284 13 16.5V15.5C13 15.2239 13.2239 15 13.5 15C13.7761 15 14 15.2239 14 15.5V16.5C14 17.0628 13.814 17.5822 13.5002 18H14C14.8284 18 15.5 17.3284 15.5 16.5V14Z" fill="#E1E1E1"/>
</svg>
