<svg width="24" height="24" viewBox="0 0 24 24" fill="none" xmlns="http://www.w3.org/2000/svg">
<mask id="mask0_494_113474" style="mask-type:alpha" maskUnits="userSpaceOnUse" x="4" y="4" width="16" height="16">
<path d="M13.3525 6.63145C15.3722 5.43512 17.1398 5.0822 17.9565 5.88682C19.2647 7.17694 17.6362 10.9505 14.3188 14.3146L14.0063 14.6251C13.6067 15.0147 13.2011 15.3786 12.7964 15.7164C13.5741 16.262 14.3229 16.6885 15.0005 16.9811C15.6959 17.2813 16.2667 17.4194 16.687 17.4342C17.1056 17.4488 17.2682 17.3419 17.3281 17.2814C17.3878 17.2206 17.4926 17.0562 17.4721 16.6378C17.4515 16.2178 17.3054 15.6487 16.9956 14.9576C16.8456 14.6232 16.6622 14.2715 16.4477 13.9078C16.3367 13.7194 16.352 13.4805 16.4922 13.3126C16.7093 13.0526 17.1165 13.0762 17.2895 13.3673C18.4915 15.3921 18.847 17.1653 18.0405 17.9835C16.7503 19.2916 12.9772 17.6627 9.61325 14.3453L9.30222 14.0328C9.01029 13.7333 8.73264 13.4308 8.4697 13.1275L8.2114 12.8238C7.66517 13.6023 7.23806 14.3518 6.94528 15.0299C6.64505 15.7254 6.5069 16.2966 6.49216 16.7169C6.47757 17.1348 6.58392 17.2975 6.6445 17.3575C6.705 17.4172 6.86969 17.522 7.28855 17.5016C7.70859 17.4809 8.27765 17.3353 8.96872 17.0255C9.30165 16.8762 9.65139 16.6935 10.0132 16.4801C10.2013 16.3692 10.4397 16.3846 10.6074 16.5245C10.8674 16.7415 10.8439 17.1486 10.5527 17.3214C8.53007 18.521 6.75973 18.876 5.94236 18.0699L5.88376 18.0074C4.68628 16.6616 6.31602 12.954 9.58152 9.64268C10.0825 9.13469 10.5931 8.6646 11.104 8.2379C10.3254 7.6916 9.5756 7.26456 8.89743 6.97178C8.28881 6.70905 7.77538 6.57077 7.37497 6.53038L7.21042 6.51866C6.79222 6.50409 6.62969 6.61095 6.5698 6.67149C6.51014 6.73204 6.40583 6.89611 6.42624 7.31456C6.4468 7.73457 6.59248 8.30357 6.90232 8.99473C7.06848 9.36533 7.27594 9.75711 7.52146 10.1627C7.66089 10.3931 7.60389 10.694 7.38376 10.8492C7.15254 11.0122 6.83149 10.9518 6.68454 10.7101C5.4223 8.63328 5.03454 6.80425 5.85788 5.96934L5.91989 5.91075C7.26551 4.71291 10.9741 6.34186 14.2856 9.60752C14.7936 10.1085 15.2628 10.62 15.6894 11.131C16.235 10.3532 16.662 9.60442 16.9546 8.92686C17.2547 8.23153 17.3925 7.66059 17.4072 7.24034C17.4218 6.82146 17.3149 6.6589 17.2544 6.59922C17.1936 6.53951 17.0299 6.43524 16.6118 6.45567C16.1917 6.47623 15.6229 6.62233 14.9316 6.93223C14.6004 7.08073 14.252 7.26148 13.8921 7.47325C13.7037 7.5841 13.4652 7.56885 13.2973 7.42881C13.0372 7.21155 13.061 6.80428 13.3525 6.63145ZM11.9282 8.85411C11.3842 9.29729 10.8342 9.79595 10.2929 10.3448C9.75213 10.8932 9.26235 11.45 8.82712 11.9996C9.26954 12.5431 9.76718 13.0928 10.3154 13.6334C10.8646 14.175 11.4223 14.665 11.9726 15.1007C12.516 14.658 13.0657 14.1607 13.6064 13.6124C14.1477 13.0635 14.6377 12.5057 15.0732 11.9557C14.6301 11.4116 14.1319 10.8613 13.583 10.3199C13.0346 9.77911 12.4778 9.28933 11.9282 8.85411Z" fill="#F7F7F8"/>
</mask>
<g mask="url(#mask0_494_113474)">
<rect x="4" y="4" width="16" height="16" fill="#F7F7F8"/>
</g>
</svg>
